<svg xmlns="http://www.w3.org/2000/svg" width="2880" height="300" viewBox="0 0 2880 300">
  <metadata><?xpacket begin="﻿" id="W5M0MpCehiHzreSzNTczkc9d"?>
<x:xmpmeta xmlns:x="adobe:ns:meta/" x:xmptk="Adobe XMP Core 5.6-c142 79.160924, 2017/07/13-01:06:39        ">
   <rdf:RDF xmlns:rdf="http://www.w3.org/1999/02/22-rdf-syntax-ns#">
      <rdf:Description rdf:about=""/>
   </rdf:RDF>
</x:xmpmeta>
                                                                                                    
                                                                                                    
                                                                                                    
                                                                                                    
                                                                                                    
                                                                                                    
                                                                                                    
                                                                                                    
                                                                                                    
                                                                                                    
                                                                                                    
                                                                                                    
                                                                                                    
                                                                                                    
                                                                                                    
                                                                                                    
                                                                                                    
                                                                                                    
                                                                                                    
                                                                                                    
                           
<?xpacket end="w"?></metadata>
<defs>
    <style>
      .cls-1, .cls-2 {
        fill: #fff;
      }

      .cls-1 {
        fill-rule: evenodd;
      }
    </style>
  </defs>
  <path id="Forma_1" data-name="Forma 1" class="cls-1" d="M2880,136a3.466,3.466,0,0,1,0,5v66q-16.005,5-32,10c-27.4,6.866-54.29,13.1-82,19-52.46,11.179-106.84,20.743-164,29-44.12,6.374-95.15,12.177-145,17-53.22,5.149-105.34,9.079-159,12l-169,6c-36.8-.118-73.2-0.449-110-1-45.2-.677-89.81-1.669-135-3l-103-4c-88.44-4.836-176.76-10.156-266-16-22.33-1.463-78.61-5.323-118-8-133.27-9.058-275.52-18.208-397-25-35.4-1.979-71.815-3.767-105-5-85.363-3.171-168.1-4.171-252-3-55.488.774-132.019,3.383-200,7-55.568,2.956-112.8,7.144-159,13-25.064,3.177-49.834,6.843-74.513,11.033C191.63,269.064,167.478,273.769,146,278,99.346,287.191.312,299.984,0,298c-0.012-.078,0-0.634,0-1,0-.167,0-1,0-1V137a1.634,1.634,0,0,1,1-1,1.591,1.591,0,0,1,1,0H2876A3.372,3.372,0,0,1,2880,136Z"/>
  <rect id="Retângulo_2" data-name="Retângulo 2" class="cls-2" width="2880" height="163"/>
</svg>
